<svg xmlns="http://www.w3.org/2000/svg" xmlns:xlink="http://www.w3.org/1999/xlink" width="500" zoomAndPan="magnify" viewBox="0 0 375 374.999991" height="500" preserveAspectRatio="xMidYMid meet" version="1.0"><defs><clipPath id="580dd23fa4"><path d="M 47 8 L 317 8 L 317 346 L 47 346 Z M 47 8 " clip-rule="nonzero"/></clipPath><clipPath id="850898bca8"><path d="M 61.761719 381.398438 L -31.800781 135.335938 L 313.109375 4.191406 L 406.667969 250.253906 Z M 61.761719 381.398438 " clip-rule="nonzero"/></clipPath><clipPath id="b7452891c6"><path d="M -31.898438 135.070312 L 61.660156 381.136719 L 406.570312 249.992188 L 313.007812 3.925781 Z M -31.898438 135.070312 " clip-rule="nonzero"/></clipPath></defs><g clip-path="url(#580dd23fa4)"><g clip-path="url(#850898bca8)"><g clip-path="url(#b7452891c6)"><path fill="#ffffff" d="M 216.542969 322.542969 C 217.316406 322.402344 218.058594 322.15625 218.765625 321.8125 C 219.476562 321.46875 220.125 321.035156 220.714844 320.515625 C 221.308594 319.992188 221.816406 319.402344 222.25 318.746094 C 222.679688 318.085938 223.015625 317.382812 223.257812 316.632812 L 315.863281 20.019531 C 316.167969 19.054688 316.304688 18.066406 316.269531 17.050781 C 316.238281 16.039062 316.039062 15.0625 315.671875 14.117188 C 315.273438 13.082031 314.691406 12.160156 313.929688 11.351562 C 313.171875 10.542969 312.289062 9.90625 311.28125 9.441406 C 310.8125 9.210938 310.332031 9.023438 309.832031 8.882812 C 309.332031 8.738281 308.824219 8.640625 308.304688 8.589844 C 307.789062 8.539062 307.273438 8.53125 306.753906 8.574219 C 306.234375 8.613281 305.726562 8.699219 305.222656 8.832031 C 304.71875 8.960938 304.234375 9.136719 303.761719 9.355469 C 303.289062 9.574219 302.84375 9.832031 302.417969 10.132812 C 301.992188 10.429688 301.597656 10.765625 301.230469 11.132812 C 300.867188 11.503906 300.535156 11.902344 300.242188 12.328125 L 187.144531 178.9375 L 125.125 102.253906 C 124.628906 101.566406 124.039062 100.972656 123.355469 100.472656 C 122.671875 99.972656 121.929688 99.59375 121.125 99.328125 C 120.320312 99.0625 119.492188 98.929688 118.648438 98.925781 C 117.800781 98.925781 116.972656 99.050781 116.167969 99.3125 C 115.375 99.460938 114.621094 99.71875 113.90625 100.082031 C 113.1875 100.449219 112.539062 100.910156 111.953125 101.460938 C 111.371094 102.015625 110.875 102.640625 110.46875 103.335938 C 110.066406 104.03125 109.769531 104.769531 109.578125 105.550781 L 47.300781 334.617188 C 47.195312 335.085938 47.125 335.5625 47.09375 336.042969 C 47.0625 336.527344 47.074219 337.007812 47.125 337.488281 C 47.175781 337.96875 47.265625 338.441406 47.390625 338.90625 C 47.519531 339.371094 47.6875 339.824219 47.890625 340.261719 C 48.09375 340.699219 48.332031 341.117188 48.605469 341.515625 C 48.878906 341.914062 49.183594 342.289062 49.515625 342.636719 C 49.851562 342.984375 50.214844 343.300781 50.601562 343.589844 C 50.988281 343.878906 51.398438 344.132812 51.828125 344.351562 C 52.257812 344.570312 52.703125 344.753906 53.164062 344.902344 C 53.625 345.046875 54.09375 345.152344 54.570312 345.222656 C 55.046875 345.289062 55.527344 345.320312 56.011719 345.308594 C 56.496094 345.296875 56.972656 345.246094 57.449219 345.152344 C 57.921875 345.0625 58.386719 344.933594 58.839844 344.765625 C 59.292969 344.597656 59.726562 344.394531 60.144531 344.152344 C 60.566406 343.914062 60.960938 343.640625 61.335938 343.332031 C 61.707031 343.027344 62.054688 342.691406 62.371094 342.328125 L 145.089844 242.164062 L 207.746094 319.542969 C 208.25 320.199219 208.835938 320.769531 209.507812 321.25 C 210.179688 321.734375 210.90625 322.109375 211.691406 322.375 C 212.472656 322.644531 213.277344 322.789062 214.105469 322.820312 C 214.929688 322.847656 215.746094 322.757812 216.542969 322.542969 Z M 216.542969 322.542969 " fill-opacity="1" fill-rule="nonzero"/></g></g></g></svg>